<?xml version="1.0" encoding="utf-8"?>
<!-- Generator: Adobe Illustrator 24.1.2, SVG Export Plug-In . SVG Version: 6.00 Build 0)  -->
<svg version="1.1" id="Layer_1" xmlns="http://www.w3.org/2000/svg" xmlns:xlink="http://www.w3.org/1999/xlink" x="0px" y="0px"
	 viewBox="0 0 122.9 108.5" style="enable-background:new 0 0 122.9 108.5;" xml:space="preserve">
<style type="text/css">
	.st0{fill-rule:evenodd;clip-rule:evenodd;fill:#F9F9F9;}
</style>
<path class="st0" d="M40,72.9c5.4,15.8,27.8,16.4,32.9,0c1.5,1.2,3.2,2.2,5,2.8c-0.8,1.3-1.6,2.7-2.2,4.1
	c-3.8,8.4-3.6,18.1,0.5,26.4H0C2,96.4,0.8,88.1,9.9,83C16.5,79.3,34,78.3,40,72.9z M122.1,95.9c0.5,0.9,0.8,1.9,0.8,2.9
	c0,5.3-8.3,9.7-18.5,9.7s-18.5-4.3-18.5-9.7c0-1,0.3-2,0.8-2.9c2.3,3.9,9.4,6.8,17.6,6.8S119.7,99.9,122.1,95.9z M111.1,71.5
	l-0.2,2.4l-9.1-0.8c0.8,1,1.3,2.1,1.6,3.3l-2.2-0.2c-0.2-0.8-0.5-1.5-1-2.1c-0.4-0.7-1.1-1.3-1.9-1.7l0.2-2L111.1,71.5L111.1,71.5z
	 M104.4,67.8c8.4,0,15.2,2.7,15.2,6s-6.8,6-15.2,6s-15.2-2.7-15.2-6S96,67.8,104.4,67.8z M104.4,65.8c10.2,0,18.5,4.3,18.5,9.7
	s-8.3,9.7-18.5,9.7s-18.5-4.3-18.5-9.7S94.2,65.8,104.4,65.8z M122.1,84.5c0.5,0.8,0.8,1.8,0.8,2.8c0,5.3-8.3,9.7-18.5,9.7
	s-18.5-4.3-18.5-9.7c0-1,0.3-1.9,0.8-2.8c2.3,4,9.3,6.9,17.7,6.9S119.8,88.5,122.1,84.5L122.1,84.5z M35.9,40.2
	c-0.9,0-1.8,0.2-2.6,0.7c-0.3,0.2-0.6,0.5-0.7,0.8c-0.2,0.4-0.3,0.9-0.2,1.3c0,1.5,0.8,3.6,2.4,5.9l0,0l0,0l5.1,8.1
	c2,3.2,4.2,6.5,6.8,9c2.6,2.5,6.1,3.9,9.7,3.9c3.8,0.1,7.6-1.4,10.3-4.1c2.7-2.6,4.9-6.1,7-9.6l5.7-9.4c1.1-2.4,1.5-4.1,1.2-5
	c-0.1-0.6-0.8-0.8-1.8-0.9c-0.2,0-0.4,0-0.7,0h-0.8c-0.1,0-0.3,0-0.4,0c-0.5,0-1.1,0-1.6-0.1l2-8.7c-14.5,2.3-25.4-8.5-40.8-2.1
	l1.1,10.2C37,40.3,36.4,40.2,35.9,40.2L35.9,40.2z M80.8,38.3c1.3,0.3,2.4,1.4,2.7,2.8c0.4,1.6,0,3.8-1.4,6.9l0,0L82,48.2l-5.8,9.5
	c-2.2,3.7-4.5,7.4-7.5,10.2c-3.3,3.2-7.7,5-12.3,4.9c-4.4,0-8.5-1.6-11.7-4.7c-2.9-2.8-5.3-6.1-7.3-9.6l-5.1-8.1
	c-1.6-2.2-2.6-4.7-2.9-7.4c0-0.9,0.2-1.8,0.5-2.6c0.4-0.8,1-1.5,1.8-2c0.4-0.3,0.8-0.5,1.2-0.6c-0.4-4.8-0.4-9.7-0.2-14.5
	c0.1-1.1,0.3-2.2,0.6-3.3c1.4-4.6,4.5-8.5,8.6-10.9c2.2-1.4,4.7-2.5,7.2-3.2c1.6-0.5-1.4-5.6,0.3-5.8c8.1-0.8,21.1,6.5,26.8,12.6
	c2.8,3.1,4.6,7.1,5,12.4L80.8,38.3L80.8,38.3z"/>
</svg>
