<?xml version="1.0" encoding="iso-8859-1"?>
<!-- Generator: Adobe Illustrator 16.0.0, SVG Export Plug-In . SVG Version: 6.00 Build 0)  -->
<!DOCTYPE svg PUBLIC "-//W3C//DTD SVG 1.1//EN" "http://www.w3.org/Graphics/SVG/1.1/DTD/svg11.dtd">
<svg version="1.1" id="Capa_1" xmlns="http://www.w3.org/2000/svg" xmlns:xlink="http://www.w3.org/1999/xlink" x="0px" y="0px"
	 width="38.196px" height="38.195px" viewBox="0 0 38.196 38.195" style="enable-background:new 0 0 38.196 38.195;"
	 xml:space="preserve">
<g>
	<path d="M28.572,8.675v15.661h-2.494v13.859h-4.021v-9.701H20.95v9.701h-4.02V24.336h-2.494V8.675h3.918l3.151,8.479l3.149-8.479
		H28.572z M21.503,0.582c-2.256,0-4.085,1.826-4.085,4.082c0,2.257,1.829,4.084,4.085,4.084c2.255,0,4.082-1.827,4.082-4.084
		C25.585,2.409,23.758,0.582,21.503,0.582z M12.79,1.664V3.35l0.254,0.01c0.847,0.049,1.418,0.194,1.714,0.442
		c0.297,0.249,0.445,0.704,0.445,1.366c0,0.712-0.162,1.213-0.484,1.5c-0.323,0.287-0.889,0.431-1.694,0.431l-0.234,0.005v0.754
		h-0.77V7.104l-0.215-0.005c-0.803,0-1.367-0.14-1.693-0.412C9.786,6.413,9.624,5.934,9.624,5.252l0.004-0.229h1.139v0.116
		c0,0.415,0.067,0.684,0.199,0.803c0.132,0.122,0.429,0.182,0.889,0.182l0.167,0.004V4.303c-0.895,0-1.507-0.13-1.835-0.39
		c-0.328-0.26-0.492-0.746-0.492-1.459c0-0.688,0.165-1.162,0.494-1.416c0.33-0.254,0.94-0.383,1.833-0.383V0h0.77v0.654
		c0.853,0,1.437,0.123,1.75,0.365c0.313,0.244,0.471,0.697,0.471,1.359v0.154h-1.101l-0.004-0.12c0-0.5-0.312-0.75-0.938-0.75
		h-0.179L12.79,1.664L12.79,1.664z M12.021,1.659l-0.162,0.006c-0.675,0-1.013,0.268-1.013,0.801c0,0.56,0.336,0.839,1.008,0.839
		c0.006,0,0.063,0.003,0.167,0.01V1.659z M12.79,6.127h0.164c0.73,0,1.097-0.312,1.097-0.94c0-0.343-0.08-0.569-0.244-0.679
		c-0.162-0.11-0.501-0.165-1.017-0.165V6.127z"/>
</g>
<g>
</g>
<g>
</g>
<g>
</g>
<g>
</g>
<g>
</g>
<g>
</g>
<g>
</g>
<g>
</g>
<g>
</g>
<g>
</g>
<g>
</g>
<g>
</g>
<g>
</g>
<g>
</g>
<g>
</g>
</svg>
