<?xml version="1.0" encoding="utf-8"?>
<!-- Generator: Adobe Illustrator 24.1.2, SVG Export Plug-In . SVG Version: 6.00 Build 0)  -->
<svg version="1.1" id="Layer_1" xmlns="http://www.w3.org/2000/svg" xmlns:xlink="http://www.w3.org/1999/xlink" x="0px" y="0px"
	 viewBox="0 0 122.9 111.9" style="enable-background:new 0 0 122.9 111.9;" xml:space="preserve">
<style type="text/css">
	.st0{fill-rule:evenodd;clip-rule:evenodd;fill:#F9F9F9;}
</style>
<path class="st0" d="M10.6,20.6h9.2v42.1c-0.8,0-1.6-0.1-2.5-0.1c-5.8-0.1-11.5,1.2-16.7,3.8L0,66.8V31.3C0,25.4,4.8,20.6,10.6,20.6
	z M33.2,100.6c0.5,0.8,0.8,1.7,0.8,2.6c0,4.8-7.4,8.7-16.6,8.7S0.8,108,0.8,103.2c0-0.9,0.3-1.8,0.8-2.6c2.1,3.5,8.4,6.1,15.8,6.1
	S31.1,104.1,33.2,100.6L33.2,100.6z M80.8,97.5c0.6,1,0.9,2.1,0.9,3.2c0,5.9-9.1,10.7-20.3,10.7s-20.3-4.8-20.3-10.7
	c0-1.1,0.3-2.2,0.9-3.2c2.6,4.3,10.3,7.5,19.4,7.5S78.3,101.9,80.8,97.5z M80.8,84.7c0.6,1,0.9,2.1,0.9,3.2
	c0,5.9-9.1,10.7-20.3,10.7s-20.3-4.8-20.3-10.7c0-1.1,0.3-2.2,0.9-3.2c2.6,4.4,10.3,7.5,19.4,7.5S78.3,89,80.8,84.7L80.8,84.7z
	 M68.8,57.8l-0.2,2.6l-10-0.9c0.8,1.1,1.4,2.3,1.7,3.6L57.9,63c-0.2-0.8-0.6-1.6-1.1-2.4c-0.5-0.8-1.2-1.4-2.1-1.8l0.2-2.1
	L68.8,57.8L68.8,57.8z M61.5,53.7c9.2,0,16.7,2.9,16.7,6.5s-7.5,6.5-16.7,6.5s-16.7-3-16.7-6.5S52.3,53.7,61.5,53.7z M61.5,51.5
	c11.2,0,20.3,4.8,20.3,10.7s-9.1,10.6-20.3,10.6S41.1,68,41.1,62.1S50.2,51.5,61.5,51.5L61.5,51.5z M80.9,72.1
	c0.5,0.9,0.8,2,0.9,3.1c0,5.9-9.1,10.7-20.3,10.7s-20.3-4.8-20.3-10.6c0-1.1,0.3-2.1,0.9-3.1c2.5,4.4,10.3,7.6,19.5,7.6
	S78.5,76.5,80.9,72.1L80.9,72.1z M121.4,100.6c0.5,0.8,0.7,1.7,0.8,2.6c0,4.8-7.4,8.7-16.6,8.7S89,108,89,103.2
	c0-0.9,0.3-1.8,0.8-2.6c2.1,3.5,8.4,6.1,15.8,6.1S119.3,104.1,121.4,100.6L121.4,100.6z M111.5,78.7l-0.2,2.2l-8.1-0.7
	c0.7,0.9,1.1,1.9,1.4,2.9l-2-0.2c-0.2-0.7-0.5-1.3-0.9-1.9c-0.4-0.7-1-1.2-1.7-1.5l0.2-1.8L111.5,78.7L111.5,78.7z M105.5,75.3
	c7.5,0,13.6,2.4,13.6,5.3s-6.1,5.3-13.6,5.3s-13.6-2.4-13.6-5.3S98,75.3,105.5,75.3L105.5,75.3z M105.5,73.6
	c9.2,0,16.6,3.9,16.6,8.7s-7.4,8.7-16.6,8.7S89,87,89,82.2S96.4,73.5,105.5,73.6L105.5,73.6z M121.4,90.4c0.5,0.8,0.7,1.6,0.7,2.5
	c0,4.8-7.4,8.7-16.6,8.7S89,97.7,89,92.9c0-0.9,0.2-1.7,0.7-2.5c2,3.6,8.4,6.2,15.9,6.2S119.4,94,121.4,90.4L121.4,90.4z M23.3,78.7
	l-0.2,2.2L15,80.2c0.7,0.9,1.1,1.9,1.4,2.9l-2-0.2c-0.2-0.7-0.4-1.3-0.8-1.9c-0.4-0.7-1-1.2-1.7-1.5l0.1-1.8L23.3,78.7L23.3,78.7z
	 M17.3,75.3c7.5,0,13.6,2.4,13.6,5.3S24.9,86,17.4,86S3.7,83.6,3.7,80.7S9.8,75.3,17.3,75.3L17.3,75.3z M17.3,73.6
	c9.1,0,16.6,3.9,16.6,8.7s-7.4,8.7-16.6,8.7S0.8,87,0.8,82.2S8.2,73.5,17.3,73.6L17.3,73.6z M33.2,90.4c0.4,0.8,0.7,1.6,0.7,2.5
	c0,4.8-7.4,8.7-16.6,8.7S0.8,97.7,0.8,92.9c0-0.9,0.2-1.7,0.7-2.5c2,3.6,8.4,6.2,15.9,6.2S31.2,94,33.2,90.4z M50.4,0h21.2
	c6.6,0,12,5.4,12,12v6.4h-7.7V12c0-2.3-1.9-4.2-4.2-4.2H50.3c-2.3,0-4.2,1.9-4.2,4.2v6.4h-7.6V12C38.5,5.4,43.8,0,50.4,0L50.4,0z
	 M26.2,20.6h69.1V64c-1,0.3-2,0.6-2.9,0.9c0.1-0.9,0.2-1.8,0.2-2.8c0-7.3-4.5-13.3-11.8-17.1c-6-3-12.7-4.5-19.4-4.4
	C54.7,40.5,48.1,42,42.1,45c-7.3,3.8-11.8,9.8-11.8,17.1c0,0.9,0.1,1.9,0.2,2.8c-1.4-0.5-2.9-0.9-4.3-1.3V20.6L26.2,20.6z
	 M101.6,20.6h10.6c5.9,0,10.6,4.8,10.6,10.6v35.6l-0.6-0.3c-5.2-2.6-10.9-3.9-16.7-3.8c-1.3,0-2.6,0.1-3.9,0.2V20.6z"/>
</svg>
