<?xml version="1.0" encoding="utf-8"?>
<!-- Generator: Adobe Illustrator 24.1.2, SVG Export Plug-In . SVG Version: 6.00 Build 0)  -->
<svg version="1.1" id="Layer_1" xmlns="http://www.w3.org/2000/svg" xmlns:xlink="http://www.w3.org/1999/xlink" x="0px" y="0px"
	 viewBox="0 0 512 512" style="enable-background:new 0 0 512 512;" xml:space="preserve">
<style type="text/css">
	.st0{fill:#FCF7F8;}
</style>
<path class="st0" d="M222.1,305h-65c-4.1,0-7.5,3.4-7.5,7.5s3.4,7.5,7.5,7.5h65c4.1,0,7.5-3.4,7.5-7.5S226.2,305,222.1,305
	L222.1,305z M212.1,357H55.5c-4.1,0-7.5,3.4-7.5,7.5s3.4,7.5,7.5,7.5l0,0h156.6c4.1,0,7.5-3.4,7.5-7.5S216.2,357,212.1,357
	L212.1,357z M120.8,305h-65c-4.1,0-7.5,3.4-7.5,7.5c0,4.1,3.4,7.5,7.5,7.5h65c4.1,0,7.5-3.4,7.5-7.5C128.3,308.4,125,305,120.8,305
	L120.8,305z M65.5,257h50c9.7,0,17.5-7.8,17.5-17.5v-31c0-9.7-7.8-17.5-17.5-17.5h-50c-9.7,0-17.5,7.8-17.5,17.5v31
	C48,249.2,55.8,257,65.5,257z M63,208.5c0-1.4,1.1-2.5,2.5-2.5h50c1.4,0,2.5,1.1,2.5,2.5v31c0,1.4-1.1,2.5-2.5,2.5h-50
	c-1.4,0-2.5-1.1-2.5-2.5V208.5z M141.5,387H55.8c-4.1,0-7.5,3.4-7.5,7.5c0,4.1,3.4,7.5,7.5,7.5h85.7c4.1,0,7.5-3.4,7.5-7.5
	S145.6,387,141.5,387z M323.3,305h-65c-4.1,0-7.5,3.4-7.5,7.5c0,4.1,3.4,7.5,7.5,7.5h65c4.1,0,7.5-3.4,7.5-7.5S327.4,305,323.3,305z
	 M414.5,191h-111c-9.7,0-17.5,7.8-17.5,17.5v12c0,9.7,7.8,17.5,17.5,17.5h111c9.7,0,17.5-7.8,17.5-17.5v-12
	C432,198.8,424.2,191,414.5,191z M417,220.5c0,1.4-1.1,2.5-2.5,2.5h-111c-1.4,0-2.5-1.1-2.5-2.5v-12c0-1.4,1.1-2.5,2.5-2.5h111
	c1.4,0,2.5,1.1,2.5,2.5V220.5z M474.5,50h-405C48.8,50,32,66.8,32,87.5v58.9c-18.4,2.7-32,18.5-32,37.1v226
	C0,430.2,16.8,447,37.5,447h405c20.7,0,37.5-16.8,37.5-37.5v-58.9c18.4-2.7,32-18.5,32-37.1v-226C512,66.8,495.2,50,474.5,50z
	 M465,409.5c0,12.4-10.1,22.5-22.5,22.5h-405C25.1,432,15,421.9,15,409.5v-226c0-12.4,10.1-22.5,22.5-22.5h405
	c12.4,0,22.5,10.1,22.5,22.5V409.5z M497,313.5c0,10.3-7,19.3-17,21.8V183.5c0-0.8,0-1.7-0.1-2.5H497V313.5z M497,166h-21.4
	c-6.5-12.3-19.2-20-33.1-20H47v-29h450V166z M497,102H47V87.5C47,75.1,57.1,65,69.5,65h405c12.4,0,22.5,10.1,22.5,22.5V102z
	 M424.5,305h-65c-4.1,0-7.5,3.4-7.5,7.5s3.4,7.5,7.5,7.5h65c4.1,0,7.5-3.4,7.5-7.5S428.6,305,424.5,305z M402,351
	c-5.3,0-10.4,1.4-15,4c-14.4-8.3-32.7-3.3-41,11c-8.3,14.4-3.3,32.7,11,41c9.3,5.3,20.7,5.3,29.9,0c14.4,8.3,32.7,3.3,41-11
	c8.3-14.4,3.3-32.7-11-41C412.4,352.4,407.2,351,402,351z M372,396c-8.3,0-15-6.7-15-15s6.7-15,15-15s15,6.7,15,15
	S380.3,396,372,396z M402,396c-1.3,0-2.5-0.2-3.8-0.5c5-9,5-20,0-29c1.2-0.3,2.5-0.5,3.8-0.5c8.3,0,15,6.7,15,15S410.3,396,402,396z
	"/>
</svg>
